<svg xmlns="http://www.w3.org/2000/svg" width="1200" height="1000" viewBox="0 0 1200 1000">
    <style>
        .actor-label { font-family: 'Segoe UI', sans-serif; font-size: 16px; font-weight: bold; fill: #000000; text-anchor: middle; }
        .uc-label { font-family: 'Segoe UI', sans-serif; font-size: 14px; fill: #000000; text-anchor: middle; }
        .sys-label { font-family: 'Segoe UI', sans-serif; font-size: 20px; font-weight: bold; fill: #333; }
        .arrow { stroke: #333; stroke-width: 2; fill: none; }
        .dashed { stroke-dasharray: 5,5; }
    </style>
    <defs>
        <marker id="arrowhead" markerWidth="10" markerHeight="7" refX="9" refY="3.5" orient="auto">
            <polygon points="0 0, 10 3.5, 0 7" fill="#333"/>
        </marker>
    </defs>
    
    <rect width="100%" height="100%" fill="white" />
    
    <!-- System Boundary -->
    <rect x="300" y="50" width="600" height="900" fill="#f5f5f5" stroke="#999" stroke-width="2" rx="10" />
    <text x="600" y="90" class="sys-label" text-anchor="middle">Survonica System</text>
    
        <circle cx="150" cy="200" r="20" fill="#e3f2fd" stroke="#1565c0" stroke-width="2"/>
        <line x1="150" y1="220" x2="150" y2="270" stroke="#1565c0" stroke-width="2"/>
        <line x1="130" y1="230" x2="170" y2="230" stroke="#1565c0" stroke-width="2"/>
        <line x1="150" y1="270" x2="130" y2="310" stroke="#1565c0" stroke-width="2"/>
        <line x1="150" y1="270" x2="170" y2="310" stroke="#1565c0" stroke-width="2"/>
        <text x="150" y="330" class="actor-label">Survey Creator</text>
        
        <circle cx="1050" cy="400" r="20" fill="#e3f2fd" stroke="#1565c0" stroke-width="2"/>
        <line x1="1050" y1="420" x2="1050" y2="470" stroke="#1565c0" stroke-width="2"/>
        <line x1="1030" y1="430" x2="1070" y2="430" stroke="#1565c0" stroke-width="2"/>
        <line x1="1050" y1="470" x2="1030" y2="510" stroke="#1565c0" stroke-width="2"/>
        <line x1="1050" y1="470" x2="1070" y2="510" stroke="#1565c0" stroke-width="2"/>
        <text x="1050" y="530" class="actor-label">Respondent</text>
        
    <rect x="1000" y="700" width="100" height="60" fill="#e3f2fd" stroke="#1565c0" stroke-width="2" rx="5"/>
    <text x="1050" y="735" class="actor-label">AI Service</text>
    
        <ellipse cx="600" cy="150" rx="110.0" ry="30.0" fill="#ffffff" stroke="#1565c0" stroke-width="2"/>
        <text x="600" y="155" class="uc-label">Login / Register</text>
        
        <ellipse cx="600" cy="250" rx="110.0" ry="30.0" fill="#ffffff" stroke="#1565c0" stroke-width="2"/>
        <text x="600" y="255" class="uc-label">Create Survey (AI)</text>
        
        <ellipse cx="600" cy="350" rx="110.0" ry="30.0" fill="#ffffff" stroke="#1565c0" stroke-width="2"/>
        <text x="600" y="355" class="uc-label">Generate Questions</text>
        
        <ellipse cx="600" cy="450" rx="110.0" ry="30.0" fill="#ffffff" stroke="#1565c0" stroke-width="2"/>
        <text x="600" y="455" class="uc-label">Detect Redundancy</text>
        
        <ellipse cx="600" cy="550" rx="110.0" ry="30.0" fill="#ffffff" stroke="#1565c0" stroke-width="2"/>
        <text x="600" y="555" class="uc-label">Edit Survey (Manual)</text>
        
        <ellipse cx="600" cy="650" rx="110.0" ry="30.0" fill="#ffffff" stroke="#1565c0" stroke-width="2"/>
        <text x="600" y="655" class="uc-label">Distribute link</text>
        
        <ellipse cx="600" cy="750" rx="110.0" ry="30.0" fill="#ffffff" stroke="#1565c0" stroke-width="2"/>
        <text x="600" y="755" class="uc-label">View Analytics</text>
        
        <ellipse cx="600" cy="850" rx="110.0" ry="30.0" fill="#ffffff" stroke="#1565c0" stroke-width="2"/>
        <text x="600" y="855" class="uc-label">Take Survey</text>
        <line x1="170" y1="230" x2="490.0" y2="150" class="arrow" /><line x1="170" y1="230" x2="490.0" y2="250" class="arrow" /><line x1="170" y1="230" x2="490.0" y2="550" class="arrow" /><line x1="170" y1="230" x2="490.0" y2="650" class="arrow" /><line x1="170" y1="230" x2="490.0" y2="750" class="arrow" /><line x1="1030" y1="430" x2="710.0" y2="850" class="arrow" /><path d="M 600 280 L 600 320" class="arrow dashed" marker-end="url(#arrowhead)"/><text x="610" y="300" font-size="12" fill="#555">&lt;&lt;include&gt;&gt;</text><path d="M 600 280 L 600 420" class="arrow dashed" marker-end="url(#arrowhead)"/><line x1="1000" y1="730" x2="710.0" y2="350" class="arrow" /></svg>